<?xml version="1.0" encoding="iso-8859-1"?>
<!-- Generator: Adobe Illustrator 19.0.0, SVG Export Plug-In . SVG Version: 6.00 Build 0)  -->
<svg version="1.1" id="Capa_1" xmlns="http://www.w3.org/2000/svg" xmlns:xlink="http://www.w3.org/1999/xlink" x="0px" y="0px"
	 viewBox="0 0 512 512" style="enable-background:new 0 0 512 512;" xml:space="preserve">
<path style="fill:#FEA832;" d="M503.899,271.291l-35.7-18.001l-17.699-35.4c-2.701-5.099-8.101-7.5-13.5-7.5s-10.8,2.401-13.2,7.5
	l-17.999,35.4l-35.4,18.001c-5.101,2.399-8.401,7.5-8.401,13.2s3.3,11.1,8.401,13.499l35.4,17.701l17.999,35.7
	c2.401,5.099,7.5,8.101,13.2,8.101s11.1-3.001,13.5-8.101l17.699-35.7l35.7-17.701C509,295.591,512,290.192,512,284.491
	S509.001,273.69,503.899,271.291z"/>
<path style="fill:#FEDB41;" d="M257,511.991c-140.61,0-257-115.39-257-256C0,99.458,145.32-26.259,305.56,4.737
	c6.05,1.157,10.767,5.903,11.909,11.968c1.128,6.05-1.553,12.188-6.782,15.454C248.899,70.948,212,138.422,212,210.991
	c0,114.434,89.663,207.528,204.141,210.678c6.167,0.176,11.587,4.087,13.696,9.888c2.095,5.786,0.439,12.275-4.175,16.348
	C378.919,489.227,319.021,511.991,257,511.991z"/>
<path style="fill:#FE9923;" d="M512,284.491c0,5.7-2.999,11.1-8.101,13.499l-35.7,17.701l-17.699,35.7
	c-2.401,5.099-7.8,8.101-13.5,8.101V210.39c5.4,0,10.8,2.401,13.5,7.5l17.699,35.4l35.7,18.001
	C509.001,273.69,512,278.791,512,284.491z"/>
<path style="fill:#FEA832;" d="M383.899,151.291l-35.7-18.001L330.5,97.89c-2.701-5.099-8.101-7.5-13.5-7.5s-10.8,2.401-13.2,7.5
	l-17.999,35.4l-35.4,18.001c-5.101,2.399-8.401,7.5-8.401,13.2s3.3,11.1,8.401,13.499l35.4,17.701l17.999,35.7
	c2.401,5.099,7.5,8.101,13.2,8.101s11.1-3.001,13.5-8.101l17.699-35.7l35.7-17.701C389,175.591,392,170.192,392,164.491
	S389.001,153.69,383.899,151.291z"/>
<path style="fill:#FE9923;" d="M392,164.491c0,5.7-2.999,11.1-8.101,13.499l-35.7,17.701l-17.699,35.7
	c-2.401,5.099-7.8,8.101-13.5,8.101V90.39c5.4,0,10.8,2.401,13.5,7.5l17.699,35.4l35.7,18.001
	C389.001,153.69,392,158.791,392,164.491z"/>
<g>
</g>
<g>
</g>
<g>
</g>
<g>
</g>
<g>
</g>
<g>
</g>
<g>
</g>
<g>
</g>
<g>
</g>
<g>
</g>
<g>
</g>
<g>
</g>
<g>
</g>
<g>
</g>
<g>
</g>
</svg>
