<svg height="512" viewBox="0 0 32 32" width="512" xmlns="http://www.w3.org/2000/svg"><g id="Layer_2" data-name="Layer 2"><circle cx="16" cy="16" fill="#fcaa06" r="7"/><g fill="#fed402"><path d="m16 7a1 1 0 0 0 1-1v-3a1 1 0 0 0 -2 0v3a1 1 0 0 0 1 1z"/><path d="m16 25a1 1 0 0 0 -1 1v3a1 1 0 0 0 2 0v-3a1 1 0 0 0 -1-1z"/><path d="m23.071 9.929a1 1 0 0 0 .707-.293l2.122-2.121a1 1 0 1 0 -1.415-1.415l-2.121 2.122a1 1 0 0 0 .707 1.707z"/><path d="m8.222 22.364-2.122 2.121a1 1 0 1 0 1.415 1.415l2.121-2.121a1 1 0 1 0 -1.414-1.414z"/><path d="m23.778 22.364a1 1 0 1 0 -1.414 1.414l2.121 2.122a1 1 0 0 0 1.415-1.415z"/><path d="m8.222 9.636a1 1 0 0 0 1.414-1.414l-2.121-2.122a1 1 0 0 0 -1.415 1.415z"/><path d="m7 16a1 1 0 0 0 -1-1h-3a1 1 0 0 0 0 2h3a1 1 0 0 0 1-1z"/><path d="m29 15h-3a1 1 0 0 0 0 2h3a1 1 0 0 0 0-2z"/></g></g></svg>